# xmcd CD database file
#
# Track frame offsets:
#	150
#	9105
#	30575
#	97387
#	122380
#	139762
#	159942
#	166705
#
# Disc length: 2463 seconds
#
# Revision: 1
# Processed by: cddbd v1.5.2PL0 Copyright (c) Steve Scherf et al.
# Submitted via: CDex 1.70beta3
#
DISCID=52099d08
DTITLE=ANGEL BEAT - Soundscape ANGEL BEAT
DYEAR=1993
DGENRE=Anime
TTITLE0=Prologue(Poem)
TTITLE1=檜山修之/愛は元気か?
TTITLE2=ドラマ「それでもあなたを愛してる」
TTITLE3=瞳の中に(Instrumental)
TTITLE4=OZ/だいすきと言いたくて
TTITLE5=千葉千恵巳/ひとつぶの思い
TTITLE6=Epilogue(Poem)
TTITLE7=皆口裕子/ANGEL BEAT
EXTD=YEAR: 1993
EXTT0=
EXTT1=
EXTT2=
EXTT3=
EXTT4=
EXTT5=
EXTT6=
EXTT7=
PLAYORDER=
